<?xml version="1.0" encoding="UTF-8"?>
<!DOCTYPE svg PUBLIC "-//W3C//DTD SVG 1.1//EN" "http://www.w3.org/Graphics/SVG/1.1/DTD/svg11.dtd">
<!-- Creator: CorelDRAW 2021 (64 Bit) -->
<svg xmlns="http://www.w3.org/2000/svg" xml:space="preserve" width="300mm" height="55.636mm" version="1.1" style="shape-rendering:geometricPrecision; text-rendering:geometricPrecision; image-rendering:optimizeQuality; fill-rule:evenodd; clip-rule:evenodd"
viewBox="0 0 30000 5563.6"
 xmlns:xlink="http://www.w3.org/1999/xlink"
 xmlns:xodm="http://www.corel.com/coreldraw/odm/2003">
 <defs>
  <style type="text/css">
   <![CDATA[
    .fil0 {fill:#343434}
    .fil3 {fill:#343434}
    .fil1 {fill:#A63036}
    .fil2 {fill:#A63036}
   ]]>
  </style>
 </defs>
 <g id="Camada_x0020_1">
  <metadata id="CorelCorpID_0Corel-Layer"/>
  <g id="_2055508155536">
   <path class="fil0" d="M8920.03 2769.59l108.92 -0.22 0.1 -2599.15 981.63 767.32 920.61 -751.12 -0.28 2583.09 110.71 0.1 -0.05 -2751.91c-87,-3.91 -98.93,2.9 -178.71,69.24l-852.02 702.54 -906.64 -709.83c-76.98,-67.68 -59.11,-65 -184.24,-63.57l-0.03 2753.51z"/>
   <path class="fil0" d="M2537.62 2769.56l106.72 0 -0.85 -2645.65c580.46,6.03 1335.17,-132.47 1594.87,636.04 154.65,457.66 -59.47,939.55 -461.3,1130.83 -232.63,110.75 -362.9,88.96 -391.03,94.87l-5.59 100.08c69.84,9.91 193.25,-14.89 250.29,-26.31l546.86 710.12 137.24 0.23 -561.79 -747.14c911.42,-400.58 820.01,-1719.25 -109.76,-1961.89 -250.12,-74.23 -816.2,-34.68 -1106.45,-40.02l0.79 2748.84z"/>
   <polygon class="fil0" points="4539.78,2769.54 4681.09,2769.77 7027.99,206 7027.99,2769.59 7136.92,2769.59 7136.92,14.28 7027.99,14.28 7019,14.28 "/>
   <path class="fil1" d="M11330.7 5539.02l145.04 -1.74 5.3 -1485.62c893.4,-123.63 1002.92,714.7 121.98,688.5l617.58 797.14 172.39 -0.4 -531.01 -687.55c327.32,-22.54 629.41,-329.7 447.5,-677.15 -164.34,-276.95 -582.85,-277.96 -975.63,-249.52l-3.15 1616.34z"/>
   <path class="fil1" d="M13275.21 4190.79l254.13 549.89 -538.39 0.48 284.26 -550.37zm-843.92 1345.89l158.46 -0.03 335.56 -667.45 662.62 0.48 324.15 667.96 164.46 -0.34 -798.94 -1644.86 -846.31 1644.24z"/>
   <polygon class="fil1" points="10078.79,5537.12 10998.66,5537.11 10998.8,5413.67 10220.39,5409.87 10222.11,4781.54 10998.16,4781.08 10998.77,4647.46 10223.74,4647.31 10220.45,4050.28 11001.32,4051.08 10998.6,3923.18 10083.33,3925.35 "/>
   <path class="fil1" d="M5305.96 5084.2l-125.06 -0.73c60.88,453.3 442.52,549.84 730.44,445.68 395.68,-143.14 388.13,-614.99 165.54,-770.29 -215.58,-150.41 -770.91,-113.3 -694.37,-492.06 32.63,-161.49 177.99,-254.91 362.47,-243.81 250.01,15.04 287.85,118.17 336.93,300.13l127.57 0.21c-45.06,-369.7 -427.37,-525.48 -742.28,-380.25 -271.89,134.46 -367.17,568.25 14.1,743.68 141.48,65.1 335.23,77.2 460.15,144.89 133.72,72.45 198.51,256.96 97.7,428.69 -67.82,115.53 -232.02,196.47 -433.32,155.7 -241.77,-48.98 -271.11,-210.81 -299.87,-331.84z"/>
   <polygon class="fil1" points="22074.1,5565.78 22898.85,3914.87 22752.35,3914.8 22075.68,5271.92 21416.25,3913.92 21276.45,3915.08 "/>
   <polygon class="fil1" points="3586.25,5536.4 3717.02,5536.74 3731.09,4782.25 4477.27,4779.82 4476.42,4647.4 3731.55,4647.38 3729.91,4047.85 4478.18,4050.95 4478.86,3924.55 3588.05,3922.86 "/>
   <polygon class="fil1" points="20788.38,5530.45 21562.34,5530.13 21562.97,5401.34 20929.91,5400.7 20930.74,3914.7 20787.86,3914.57 "/>
   <polygon class="fil1" points="6543.67,5537.37 6687.36,5537.04 6687,3922.97 6543.03,3922.9 "/>
   <polygon class="fil1" points="4751.41,5536.87 4888.76,5537.12 4895.7,3923.09 4750.96,3922.72 "/>
   <polygon class="fil1" points="19953.14,3890.21 20098.65,3889.15 20235.19,3587.85 20110.16,3581.2 "/>
   <path class="fil1" d="M7084.3 4723.14c0,-370.29 315.45,-670.46 704.56,-670.46 389.11,0 704.56,300.17 704.56,670.46 0,370.28 -315.45,670.45 -704.56,670.45 -389.11,0 -704.56,-300.17 -704.56,-670.45zm1568.48 0c0,-458.31 -386.79,-829.83 -863.92,-829.83 -477.14,0 -863.92,371.52 -863.92,829.83 0,458.29 386.78,829.82 863.92,829.82 477.13,0 863.92,-371.53 863.92,-829.82z"/>
   <polygon class="fil2" points="8813.07,3921.75 9286.15,3921.75 9441.66,3921.75 9910.84,3921.75 9910.84,4049.52 9441.66,4049.52 9441.66,5534.79 9286.15,5534.79 9286.15,4049.52 8813.07,4049.52 "/>
   <path class="fil2" d="M18433.08 4686.61l0 -649.78 257.8 0c52.89,0 106.61,1.81 159.13,8.39 42.68,5.33 85.93,14.38 126.1,30.23 56.19,22.16 105.68,56.38 141.32,106.29 37.5,52.52 51.01,115.7 51.01,179.67 0,53.22 -8.54,105.98 -30.2,154.71 -21.73,48.88 -56.32,87.94 -99.41,118.6 -49.79,35.42 -109.98,56.92 -168.87,70.6 -59,13.71 -218.99,20.05 -279.82,22.39l-2.24 126.49c206.07,-1.52 405.75,-30.05 547.44,-131.12 55.58,-39.63 99.76,-89.31 130.38,-150.9 32.49,-65.37 44.78,-138.02 44.78,-210.77 0,-87.49 -18.04,-173.2 -68.15,-245.73 -49.95,-72.3 -121.99,-119.45 -202.67,-149.75 -47.88,-17.99 -97.88,-29.84 -148.34,-37.31 -59.12,-8.77 -119.1,-12.09 -178.81,-12.09l-411.71 0 0 1613.84 132.26 0 0.11 -656.52 -0.11 -187.24z"/>
   <path class="fil2" d="M14417.98 4696.5l0 -642.16 257.8 0c52.89,0 106.61,1.79 159.13,8.29 42.68,5.27 85.93,14.21 126.1,29.87 56.19,21.91 105.68,55.72 141.32,105.05 37.5,51.9 51.01,114.34 51.01,177.56 0,52.59 -8.54,104.74 -30.2,152.9 -21.73,48.3 -56.32,86.91 -99.41,117.21 -49.79,35.01 -109.98,56.25 -168.87,69.77 -59,13.55 -218.99,19.81 -279.82,22.13l-2.24 125.01c206.07,-1.51 405.75,-29.7 547.44,-129.59 55.58,-39.17 99.76,-88.26 130.38,-149.13 32.49,-64.61 44.78,-136.4 44.78,-208.3 0,-86.47 -18.04,-171.17 -68.16,-242.85 -49.94,-71.45 -121.98,-118.04 -202.66,-147.99 -47.88,-17.78 -97.88,-29.49 -148.34,-36.88 -59.12,-8.66 -119.1,-11.95 -178.81,-11.95l-411.71 0 0 1594.93 132.26 0 0.11 -648.82 -0.11 -185.05z"/>
   <polygon class="fil1" points="19542.41,5528.44 20462.28,5528.42 20462.42,5404.99 19684.02,5401.19 19685.74,4772.86 20461.79,4772.4 20462.39,4638.78 19687.36,4638.62 19684.08,4041.59 20464.94,4042.4 20462.22,3914.5 19546.96,3916.67 "/>
   <path class="fil1" d="M16648.73 4190.79l254.12 549.89 -538.39 0.48 284.27 -550.37zm-843.95 1345.92l158.48 -0.06 335.56 -667.45 662.62 0.48 324.15 667.96 164.46 -0.34 -798.94 -1644.86 -846.33 1644.27z"/>
   <rect class="fil2" x="15466.6" y="3915" width="136.88" height="1617.73"/>
   <rect class="fil2" x="23064.52" y="3910.04" width="136.88" height="1617.73"/>
   <path class="fil2" d="M23623.91 4722.5c0,-370.28 315.44,-670.45 704.55,-670.45 173.91,0 333.12,59.96 456.02,159.35l107.32 -118.06c-151.26,-125.05 -348.11,-200.66 -563.34,-200.66 -477.13,0 -863.92,371.52 -863.92,829.82 0,458.29 386.79,829.83 863.92,829.83 203.45,0 390.46,-67.55 538.08,-180.57l-104.46 -120.77c-119.56,88.96 -270.08,141.97 -433.62,141.97 -389.11,0 -704.55,-300.17 -704.55,-670.46z"/>
   <path class="fil1" d="M25811.79 4185.13l254.13 549.89 -538.39 0.48 284.26 -550.37zm-843.94 1345.92l158.48 -0.06 335.56 -667.45 662.62 0.48 324.15 667.96 164.46 -0.34 -798.94 -1644.87 -846.33 1644.28z"/>
   <path class="fil3" d="M1096.9 2783.84l0 -113.25c1239.68,0 1247.13,-2509.51 -315.81,-2556.62 -133.79,-1.39 -561.86,3.28 -670.38,9.28l-0.27 2645.99 -113.37 -0.54 0.39 -2755.02c466.28,-3.6 952.79,-57.66 1348.63,130.13 1064.87,505.19 1005.52,2570.87 -249.19,2640.03z"/>
   <rect class="fil0" x="7403.96" y="2556.85" width="198.52" height="208.55"/>
   <polygon class="fil0" points="11126,2766.73 11267.3,2766.95 13614.2,203.18 13614.2,2766.78 13723.13,2766.78 13723.13,11.47 13614.2,11.47 13605.22,11.47 "/>
   <path class="fil0" d="M14045.59 2767.21l106.72 0 -0.85 -2645.65c580.46,6.04 1335.17,-132.47 1594.87,636.04 154.65,457.66 -59.47,939.55 -461.3,1130.83 -232.63,110.75 -362.9,88.96 -391.03,94.87l-5.59 100.08c69.84,9.91 193.25,-14.88 250.29,-26.31l546.86 710.12 137.24 0.23 -561.79 -747.14c911.42,-400.58 820.01,-1719.25 -109.76,-1961.89 -250.12,-74.23 -816.2,-34.68 -1106.45,-40.02l0.79 2748.84z"/>
   <polygon class="fil0" points="17478.29,2767.5 17619.59,2767.73 19966.49,203.96 19966.49,2767.56 20075.43,2767.56 20075.43,12.25 19966.49,12.25 19957.51,12.25 "/>
   <polygon class="fil3" points="16788.56,121.4 16788.56,2773.71 16680.64,2773.71 16680.64,121.4 15976.98,121.4 15976.98,13.48 17541.77,13.48 17541.77,121.4 "/>
   <path class="fil0" d="M21642.98 2775.23l106.71 0 -0.84 -2645.65c580.45,6.04 1335.17,-132.47 1594.87,636.04 154.64,457.66 -59.47,939.55 -461.31,1130.83 -232.62,110.75 -362.9,88.96 -391.02,94.87l-5.59 100.08c69.84,9.91 193.24,-14.88 250.28,-26.31l546.87 710.12 137.24 0.23 -561.79 -747.14c911.42,-400.58 820,-1719.25 -109.76,-1961.89 -250.12,-74.23 -816.2,-34.68 -1106.45,-40.02l0.79 2748.84z"/>
   <rect class="fil3" x="23687.01" y="8.28" width="101.14" height="2758.14"/>
   <rect class="fil3" x="27422.71" y="8.28" width="101.14" height="2758.14"/>
   <polygon class="fil3" points="25534.05,116.73 26992.82,116.73 25481.96,2771.88 25616.48,2771.88 27076.45,2771.88 27076.45,2668.4 25675.36,2668.4 27186.23,13.25 27051.7,13.25 25534.05,13.25 "/>
   <polygon class="fil3" points="23961.12,116.73 25419.9,116.73 23909.03,2771.88 24043.56,2771.88 25435.5,2771.88 25436,2668.4 24102.44,2668.4 25613.31,13.25 25478.78,13.25 23961.12,13.25 "/>
   <rect class="fil3" x="29895.93" y="8.28" width="101.14" height="2758.14"/>
   <polygon class="fil3" points="29533.74,8.28 29634.88,8.28 29634.88,2766.43 29533.74,2766.43 29533.74,891.31 27896.39,144.72 27896.39,2766.43 27795.24,2766.43 27795.24,8.28 27896.39,8.28 29533.74,762.69 "/>
  </g>
 </g>
</svg>
