<?xml version="1.0" encoding="UTF-8"?>
<!DOCTYPE svg PUBLIC "-//W3C//DTD SVG 1.1//EN" "http://www.w3.org/Graphics/SVG/1.1/DTD/svg11.dtd">
<!-- Creator: CorelDRAW 2021 (64 Bit) -->
<svg xmlns="http://www.w3.org/2000/svg" xml:space="preserve" width="290mm" height="158.479mm" version="1.1" style="shape-rendering:geometricPrecision; text-rendering:geometricPrecision; image-rendering:optimizeQuality; fill-rule:evenodd; clip-rule:evenodd"
viewBox="0 0 29000 15847.9"
 xmlns:xlink="http://www.w3.org/1999/xlink"
 xmlns:xodm="http://www.corel.com/coreldraw/odm/2003">
 <defs>
  <style type="text/css">
   <![CDATA[
    .fil0 {fill:#343434}
    .fil2 {fill:#343434}
    .fil1 {fill:#A63036}
    .fil3 {fill:#A63036}
   ]]>
  </style>
 </defs>
 <g id="Camada_x0020_1">
  <metadata id="CorelCorpID_0Corel-Layer"/>
  <path class="fil0" d="M18321.52 572.84c1390.99,65.91 2526.75,1473.44 2370.56,2988.59 -132.75,1287.82 -1050.72,2236.8 -2251.86,2447.91 -140.21,24.64 -574.43,51.87 -642.76,63.91 7.83,202.79 6.22,385.79 4.97,526 323.98,3.54 685.4,-43.42 983.94,-103.09 144.27,185.96 284.46,355.97 427.38,544.63l835.69 1103.97c67.63,90.29 132.72,184.21 204.29,280.45 65.63,88.25 160.94,193.97 199.38,285.74l688.57 -0.88 -1781.34 -2413.59c62.82,-46.43 185.55,-101.02 266.6,-148.98 336.17,-198.93 257.57,-173.04 519.58,-370.07 144.87,-108.94 305.37,-307.61 430.03,-459.02 68.79,-83.56 126.31,-167.81 182.62,-261.81 1174.1,-1959.7 137.31,-4542.93 -2008.64,-4986.71 -494.32,-102.23 -1197.48,-61 -1722.11,-60.01 -593.4,1.13 -1186.8,-1.45 -1780.24,0.22l-1.3 3011.44 536.76 -0.15c36.12,-28.85 28.41,44.28 32.27,-58.95l1.34 -2389.82 2504.27 0.22z"/>
  <path class="fil1" d="M11471.69 5919.87c-69.87,-32.57 -21.99,1.86 -71.18,-57.69l-302.22 -364.36c-41.52,-49.83 -84.64,-98.47 -122.5,-140.42 -175.1,-194.08 -324.37,-386.51 -495.02,-575.74 -90.87,-100.76 -159.43,-199.62 -241.82,-283.31l-750.45 -855.14 1710.56 3288.87 505.87 4.46c275.59,-550.19 557.48,-1132.95 842.78,-1665.34 214.96,-401.12 429.56,-884.7 632.37,-1246.95 62.16,-111.03 172.55,-297.97 202.74,-404.65l-1911.13 2300.27z"/>
  <path class="fil0" d="M8619.38 13125.8l105.26 -0.21 0.09 -2511.69 948.6 741.5 889.64 -725.84 -0.27 2496.17 106.98 0.1 -0.05 -2659.32c-84.07,-3.78 -95.6,2.8 -172.69,66.91l-823.35 678.9 -876.14 -685.94c-74.39,-65.41 -57.12,-62.82 -178.04,-61.43l-0.03 2660.85z"/>
  <path class="fil0" d="M2451.73 13125.78l103.12 0 -0.82 -2556.63c560.93,5.83 1290.25,-128.02 1541.21,614.64 149.44,442.25 -57.47,907.93 -445.78,1092.78 -224.8,107.02 -350.69,85.96 -377.87,91.67l-5.4 96.72c67.49,9.57 186.74,-14.39 241.86,-25.43l528.47 686.23 132.62 0.22 -542.89 -722c880.75,-387.1 792.41,-1661.4 -106.07,-1895.88 -241.7,-71.73 -788.73,-33.51 -1069.22,-38.67l0.77 2656.35z"/>
  <polygon class="fil0" points="4386.52,13125.76 4523.07,13125.98 6791,10648.47 6791,13125.81 6896.27,13125.81 6896.27,10463.21 6791,10463.21 6782.32,10463.21 "/>
  <path class="fil1" d="M10948.94 15802.05l140.16 -1.68 5.11 -1435.63c863.35,-119.47 969.18,690.65 117.88,665.33l596.8 770.32 166.59 -0.39 -513.14 -664.41c316.3,-21.79 608.23,-318.61 432.44,-654.37 -158.81,-267.63 -563.23,-268.6 -942.8,-241.12l-3.04 1561.95z"/>
  <path class="fil1" d="M12828.02 14499.19l245.57 531.38 -520.27 0.47 274.7 -531.85zm-815.53 1300.6l153.13 -0.03 324.27 -644.99 640.33 0.47 313.24 645.48 158.92 -0.33 -772.05 -1589.52 -817.84 1588.92z"/>
  <polygon class="fil1" points="9739.15,15800.22 10628.07,15800.2 10628.2,15680.92 9875.99,15677.25 9877.65,15070.06 10627.59,15069.62 10628.17,14940.49 9879.22,14940.34 9876.05,14363.4 10630.64,14364.18 10628.01,14240.58 9743.54,14242.68 "/>
  <path class="fil1" d="M5126.91 15362.53l-120.84 -0.7c58.83,438.05 427.62,531.34 705.86,430.68 382.36,-138.32 375.07,-594.3 159.97,-744.37 -208.33,-145.35 -744.97,-109.48 -671.01,-475.5 31.53,-156.06 172,-246.34 350.28,-235.61 241.59,14.54 278.16,114.2 325.59,290.04l123.27 0.2c-43.54,-357.26 -412.98,-507.8 -717.3,-367.46 -262.74,129.94 -354.82,549.13 13.63,718.66 136.72,62.91 323.94,74.6 444.66,140.01 129.22,70.02 191.83,248.31 94.41,414.27 -65.53,111.64 -224.21,189.86 -418.73,150.46 -233.64,-47.33 -261.99,-203.71 -289.79,-320.68z"/>
  <polygon class="fil1" points="21330.84,15827.91 22127.84,14232.55 21986.27,14232.49 21332.37,15543.94 20695.13,14231.63 20560.03,14232.75 "/>
  <polygon class="fil1" points="3465.07,15799.52 3591.44,15799.85 3605.04,15070.74 4326.11,15068.4 4325.29,14940.43 3605.48,14940.41 3603.9,14361.06 4326.99,14364.05 4327.64,14241.91 3466.81,14240.27 "/>
  <polygon class="fil1" points="20088.39,15793.77 20836.3,15793.46 20836.91,15669 20225.15,15668.39 20225.95,14232.39 20087.88,14232.26 "/>
  <path class="fil2" d="M14220.06 983.49l27.07 7736.8 562.54 1 -0.46 -8714.93c-541.89,7.31 -439.57,-43.44 -649.85,208.24l-2693.15 3272.34 -2931.23 -3467.22 -511.04 -7.95 -0.51 8702.04 553.03 2.59 5.31 -7762.61 2881.46 3346.98 2756.83 -3317.28z"/>
  <polygon class="fil1" points="6322.98,15800.46 6461.83,15800.14 6461.49,14240.38 6322.36,14240.31 "/>
  <polygon class="fil1" points="4591.03,15799.98 4723.75,15800.22 4730.46,14240.49 4590.59,14240.14 "/>
  <polygon class="fil1" points="19281.25,14208.72 19421.86,14207.69 19553.81,13916.53 19432.99,13910.11 "/>
  <path class="fil1" d="M6845.42 15013.62c0,-357.83 304.83,-647.9 680.85,-647.9 376.02,0 680.85,290.07 680.85,647.9 0,357.83 -304.83,647.9 -680.85,647.9 -376.02,0 -680.85,-290.07 -680.85,-647.9zm1515.7 0c0,-442.88 -373.77,-801.9 -834.85,-801.9 -461.08,0 -834.85,359.02 -834.85,801.9 0,442.87 373.77,801.9 834.85,801.9 461.08,0 834.85,-359.03 834.85,-801.9z"/>
  <polygon class="fil3" points="8516.02,14239.2 8973.18,14239.2 9123.46,14239.2 9576.85,14239.2 9576.85,14362.67 9123.46,14362.67 9123.46,15797.96 8973.18,15797.96 8973.18,14362.67 8516.02,14362.67 "/>
  <path class="fil3" d="M17812.33 14978.32l0 -627.91 249.13 0c51.11,0 103.02,1.75 153.77,8.1 41.25,5.16 83.05,13.9 121.87,29.22 54.29,21.41 102.12,54.48 136.56,102.71 36.24,50.76 49.29,111.81 49.29,173.63 0,51.42 -8.25,102.41 -29.18,149.5 -21,47.23 -54.43,84.98 -96.07,114.61 -48.12,34.23 -106.28,55 -163.19,68.22 -57.01,13.25 -211.62,19.38 -270.4,21.64l-2.16 122.24c199.13,-1.48 392.09,-29.04 529.02,-126.71 53.71,-38.3 96.4,-86.31 125.99,-145.83 31.4,-63.17 43.27,-133.37 43.27,-203.67 0,-84.55 -17.43,-167.38 -65.86,-237.47 -48.26,-69.86 -117.88,-115.42 -195.84,-144.71 -46.27,-17.38 -94.59,-28.84 -143.36,-36.05 -57.12,-8.48 -115.09,-11.69 -172.79,-11.69l-397.85 0 0 1559.54 127.8 0 0.11 -634.43 -0.11 -180.94z"/>
  <path class="fil3" d="M13932.33 14987.88l0 -620.56 249.13 0c51.11,0 103.02,1.74 153.77,8.01 41.25,5.1 83.05,13.74 121.87,28.88 54.29,21.16 102.12,53.84 136.56,101.51 36.24,50.16 49.29,110.5 49.29,171.59 0,50.82 -8.25,101.21 -29.18,147.75 -21,46.68 -54.43,83.98 -96.07,113.27 -48.12,33.83 -106.28,54.35 -163.19,67.42 -57.01,13.09 -211.62,19.15 -270.4,21.38l-2.16 120.8c199.13,-1.45 392.09,-28.69 529.02,-125.22 53.71,-37.85 96.4,-85.29 125.99,-144.11 31.4,-62.44 43.27,-131.82 43.27,-201.29 0,-83.56 -17.43,-165.42 -65.86,-234.69 -48.26,-69.04 -117.88,-114.07 -195.84,-143.01 -46.27,-17.18 -94.59,-28.5 -143.36,-35.63 -57.12,-8.37 -115.09,-11.55 -172.79,-11.55l-397.85 0 0 1541.26 127.8 0 0.11 -626.99 -0.11 -178.82z"/>
  <polygon class="fil1" points="18884.34,15791.83 19773.26,15791.81 19773.39,15672.53 19021.18,15668.86 19022.84,15061.67 19772.78,15061.23 19773.36,14932.1 19024.41,14931.95 19021.24,14355.01 19775.83,14355.79 19773.2,14232.19 18888.73,14234.29 "/>
  <path class="fil1" d="M16088.02 14499.19l245.57 531.38 -520.27 0.47 274.7 -531.85zm-815.55 1300.63l153.15 -0.06 324.27 -644.99 640.33 0.47 313.24 645.48 158.92 -0.33 -772.05 -1589.52 -817.86 1588.95z"/>
  <rect class="fil3" x="14945.67" y="14232.67" width="132.27" height="1563.3"/>
  <rect class="fil3" x="22287.94" y="14227.88" width="132.27" height="1563.3"/>
  <path class="fil3" d="M22828.5 15013.01c0,-357.83 304.83,-647.9 680.85,-647.9 168.06,0 321.91,57.95 440.67,153.99l103.71 -114.08c-146.17,-120.85 -336.39,-193.91 -544.38,-193.91 -461.08,0 -834.85,359.02 -834.85,801.9 0,442.87 373.77,801.9 834.85,801.9 196.6,0 377.32,-65.27 519.97,-174.49l-100.94 -116.71c-115.54,85.97 -261,137.2 -419.03,137.2 -376.02,0 -680.85,-290.07 -680.85,-647.9z"/>
  <path class="fil1" d="M24942.77 14493.72l245.57 531.38 -520.27 0.47 274.7 -531.85zm-815.55 1300.63l153.15 -0.06 324.27 -644.99 640.33 0.47 313.24 645.48 158.92 -0.33 -772.05 -1589.52 -817.86 1588.95z"/>
  <path class="fil2" d="M1059.48 13139.58l0 -109.44c1197.97,0 1205.17,-2425.07 -305.18,-2470.6 -129.29,-1.34 -542.96,3.17 -647.82,8.97l-0.26 2556.96 -109.56 -0.52 0.38 -2662.32c450.59,-3.48 920.73,-55.72 1303.25,125.75 1029.04,488.19 971.68,2484.36 -240.81,2551.2z"/>
  <rect class="fil0" x="7154.32" y="12920.23" width="191.84" height="201.53"/>
  <polygon class="fil0" points="10751.12,13123.04 10887.67,13123.26 13155.6,10645.75 13155.6,13123.09 13260.87,13123.09 13260.87,10460.49 13155.6,10460.49 13146.92,10460.49 "/>
  <path class="fil0" d="M13572.48 13123.51l103.12 0 -0.82 -2556.63c560.93,5.83 1290.25,-128.02 1541.21,614.64 149.44,442.25 -57.47,907.93 -445.78,1092.78 -224.8,107.02 -350.69,85.96 -377.87,91.67l-5.4 96.72c67.49,9.57 186.74,-14.39 241.86,-25.43l528.47 686.23 132.62 0.22 -542.89 -722c880.75,-387.1 792.41,-1661.4 -106.07,-1895.88 -241.7,-71.73 -788.73,-33.51 -1069.22,-38.67l0.77 2656.35z"/>
  <polygon class="fil0" points="16889.67,13123.79 17026.22,13124.01 19294.15,10646.5 19294.15,13123.84 19399.42,13123.84 19399.42,10461.24 19294.15,10461.24 19285.47,10461.24 "/>
  <polygon class="fil2" points="16223.15,10566.72 16223.15,13129.79 16118.86,13129.79 16118.86,10566.72 15438.88,10566.72 15438.88,10462.43 16951.02,10462.43 16951.02,10566.72 "/>
  <path class="fil0" d="M20914.23 13131.26l103.12 0 -0.82 -2556.63c560.93,5.83 1290.25,-128.02 1541.21,614.64 149.44,442.25 -57.47,907.93 -445.78,1092.78 -224.8,107.02 -350.69,85.96 -377.87,91.67l-5.4 96.72c67.49,9.57 186.74,-14.39 241.86,-25.43l528.47 686.23 132.62 0.22 -542.89 -722c880.75,-387.1 792.41,-1661.4 -106.07,-1895.88 -241.7,-71.73 -788.73,-33.51 -1069.22,-38.67l0.77 2656.35z"/>
  <rect class="fil2" x="22889.48" y="10457.41" width="97.74" height="2665.34"/>
  <rect class="fil2" x="26499.48" y="10457.41" width="97.74" height="2665.34"/>
  <polygon class="fil2" points="24674.37,10562.21 26084.06,10562.21 24624.03,13128.02 24754.03,13128.02 26164.87,13128.02 26164.87,13028.02 24810.93,13028.02 26270.96,10462.21 26140.96,10462.21 24674.37,10462.21 "/>
  <polygon class="fil2" points="23154.37,10562.21 24564.06,10562.21 23104.03,13128.02 23234.03,13128.02 24579.14,13128.02 24579.62,13028.02 23290.93,13028.02 24750.96,10462.21 24620.96,10462.21 23154.37,10462.21 "/>
  <rect class="fil2" x="28889.48" y="10457.41" width="97.74" height="2665.34"/>
  <polygon class="fil2" points="28539.48,10457.41 28637.22,10457.41 28637.22,13122.75 28539.48,13122.75 28539.48,11310.73 26957.22,10589.26 26957.22,13122.75 26859.48,13122.75 26859.48,10457.41 26957.22,10457.41 28539.48,11186.43 "/>
 </g>
</svg>
