<?xml version="1.0" encoding="UTF-8"?>
<!DOCTYPE svg PUBLIC "-//W3C//DTD SVG 1.1//EN" "http://www.w3.org/Graphics/SVG/1.1/DTD/svg11.dtd">
<!-- Creator: CorelDRAW 2021 (64 Bit) -->
<svg xmlns="http://www.w3.org/2000/svg" xml:space="preserve" width="130mm" height="85.857mm" version="1.1" style="shape-rendering:geometricPrecision; text-rendering:geometricPrecision; image-rendering:optimizeQuality; fill-rule:evenodd; clip-rule:evenodd"
viewBox="0 0 13000 8585.7"
 xmlns:xlink="http://www.w3.org/1999/xlink"
 xmlns:xodm="http://www.corel.com/coreldraw/odm/2003">
 <defs>
  <style type="text/css">
   <![CDATA[
    .fil0 {fill:#A9ABAE}
    .fil2 {fill:#848384}
    .fil1 {fill:#A63036}
   ]]>
  </style>
 </defs>
 <g id="Camada_x0020_1">
  <metadata id="CorelCorpID_0Corel-Layer"/>
  <g id="_2370861994560">
   <path class="fil0" d="M6088.18 974.06l35.22 -32.44 8.28 7636.34 524.62 -10.08 -4.56 -8554.22c-545.37,5.14 -398.2,-57.48 -623.22,204.67l-178.32 218.78c-115.54,140.02 -233.53,291.88 -348.9,426.11 -467.93,544.45 -934.39,1181.42 -1401.43,1716.46 -131.39,150.52 -623.69,793.1 -718.4,854.99 -112.81,-120.2 -237.37,-282.12 -353.93,-414.31l-179.91 -217.53c-452.94,-553.06 -999.17,-1153.62 -1443.85,-1693.75 -59.41,-72.17 -121.04,-152.93 -180.62,-216.56 -62.43,-66.68 -119.58,-141.29 -181.13,-216.36l-541.63 -649.37 -502.3 -7.82 -0.5 8553.11 543.57 2.54 5.22 -7629.75c90,54.28 122.72,122.2 188.88,196.81 224.2,252.82 496.22,604.94 705.57,823.88 57.76,60.42 114.28,129.17 174.3,202.7 56.06,68.66 116.42,136.55 173.75,204.09l1589.64 1862.22c104.6,-51.74 417.64,-481.69 523.43,-601.88 68.87,-78.24 111.87,-141.33 169.28,-207.92 234.32,-271.78 447.11,-537.52 675.54,-814 306.95,-371.52 696.57,-870.5 1003.39,-1220.64l338.01 -416.07z"/>
   <path class="fil0" d="M7625 2977.09c75.41,-283.3 -39.76,-1974.79 24.8,-2410.18 112.21,-46.25 1889,-24.88 2310.64,-23.47 21.79,0.07 60.68,-0.3 81.2,2.88l77.81 24.12c1367.17,64.79 2483.5,1448.22 2329.98,2937.44 -130.48,1265.78 -1032.73,2198.52 -2213.32,2406.01 -137.81,24.23 -543.9,39.43 -612.62,62.83 -44.26,103.61 -13.02,379.18 -14.25,516.99 303.12,56.86 687.34,-83.69 967.1,-101.33 141.8,182.78 279.59,349.88 420.06,535.31l821.39 1085.08c66.47,88.75 130.44,181.06 200.79,275.65 64.51,86.74 158.19,190.65 195.97,280.85l676.79 -0.87 -1750.85 -2372.28c61.74,-45.64 182.37,-99.29 262.03,-146.43 330.42,-195.53 253.16,-170.08 510.69,-363.73 142.38,-107.08 300.15,-302.35 422.67,-451.17 67.61,-82.13 124.14,-164.94 179.49,-257.33 1154.01,-1926.16 134.97,-4465.18 -1974.26,-4901.36 -485.86,-100.48 -1176.99,-59.95 -1692.63,-58.98 -583.25,1.11 -1166.5,-1.43 -1749.78,0.21l-1.27 2959.9 527.57 -0.14z"/>
   <path class="fil1" d="M3386.85 5825.96c-68.68,-32.02 -21.61,1.83 -69.96,-56.7l-297.06 -358.13c-40.8,-48.98 -83.19,-96.78 -120.39,-138.02 -172.11,-190.76 -318.83,-379.89 -486.55,-565.88 -89.31,-99.04 -156.71,-196.21 -237.68,-278.46l-737.61 -840.51 1681.28 3232.58 497.22 4.39c270.87,-540.78 547.93,-1113.56 828.35,-1636.84 211.28,-394.26 422.21,-869.56 621.55,-1225.61 61.1,-109.13 169.59,-292.87 199.27,-397.72l-1878.42 2260.9z"/>
   <path class="fil2" d="M6088.18 974.06c45.71,71.37 23.35,849.38 23.56,932.2l0.24 5719.82c-0.92,298.82 -17.09,654.65 2.81,947 99.9,32.2 434.35,21.14 548.44,6.36 24.93,-236.55 3.61,-3929.25 4.38,-4289.92l-0.3 -4011.82c-0.27,-128.23 17.56,-196.01 -15.57,-264.04l4.56 8554.22 -524.62 10.08 -8.28 -7636.34 -35.22 32.44z"/>
   <path class="fil2" d="M7625 2977.09c35.5,-28.36 27.92,43.52 31.71,-57.94l1.33 -2348.92 2461.41 0.21 -77.81 -24.12c-20.52,-3.18 -59.41,-2.81 -81.2,-2.88 -421.64,-1.41 -2198.43,-22.78 -2310.64,23.47 -64.56,435.39 50.61,2126.88 -24.8,2410.18z"/>
  </g>
 </g>
</svg>
